<?xml version="1.0" encoding="UTF-8"?>
<svg version="1.1" xmlns="http://www.w3.org/2000/svg" width="1220" height="1225">
<path d="M0 0 C2.10200301 0.00545147 4.20399473 0.00781096 6.30600357 0.00987244 C27.87126942 0.04279605 49.20503313 0.70651099 70.62762833 3.31785583 C71.84530899 3.45707458 73.06298965 3.59629333 74.31756973 3.73973083 C126.28805984 9.75964013 178.09124302 22.78052839 226.62762833 42.31785583 C227.63986465 42.72439392 228.65210098 43.13093201 229.69501114 43.54978943 C254.64618614 53.65752199 278.79756493 65.23053109 302.04315567 78.81687927 C304.49240362 80.23932178 306.95599498 81.63147976 309.42840958 83.01316833 C338.321875 99.2530694 365.21492479 119.09654917 390.62762833 140.31785583 C391.12536758 140.7306781 391.62310684 141.14350037 392.13592911 141.5688324 C406.19474883 153.23916447 419.28138458 165.80576731 432.17743301 178.73728943 C434.51646313 181.0817226 436.8608503 183.42070455 439.20575333 185.75926208 C440.71909519 187.27326418 442.23212714 188.78757613 443.74481583 190.30223083 C444.4334874 190.98887817 445.12215897 191.67552551 445.83169937 192.38298035 C450.29528907 196.86794523 454.50960552 201.51492448 458.62762833 206.31785583 C459.60084116 207.43569282 460.57467502 208.55298987 461.54950333 209.66941833 C468.03217445 217.15420331 474.26990219 224.79068129 480.32049942 232.62840271 C481.57860064 234.25448796 482.84591962 235.87292238 484.11590958 237.48973083 C541.94177106 311.63963934 581.04438768 401.08421361 608.62762833 613.31785583 C608.60974258 614.32735291 608.59185684 615.33684998 608.57342911 616.37693787 C608.18950558 636.14759838 606.77725829 655.6701847 604.62762833 675.31785583 C604.51693008 676.34394958 604.40623184 677.37004333 604.29217911 678.42723083 C595.14521734 760.96129573 567.22707615 842.68102742 522.62762833 916.31785583 C521.61558953 918.00255945 520.60385985 919.68744881 519.59247208 921.37254333 C514.48908567 929.83642241 509.24245905 938.18145568 503.62762833 946.31785583 C502.96875626 947.27425964 502.96875626 947.27425964 502.29657364 948.24998474 C495.82150709 957.62063793 489.10375634 966.7282506 481.98212051 975.61619568 C480.61326758 977.33589737 479.26252389 979.06837496 477.91669083 980.80613708 C465.77335314 996.47004055 452.75911844 1011.3783227 438.62762833 1025.28269958 C436.75620806 1027.18701591 435.03215704 1029.14975676 433.31512833 1031.19285583 C429.89843472 1035.18031961 426.07391454 1038.66436024 422.18011856 1042.17185974 C418.98610304 1045.05352044 415.89734472 1048.00111964 412.87762833 1051.06785583 C408.95542233 1055.03201056 404.86786103 1058.69952392 400.62762833 1062.31785583 C399.57494184 1063.23382979 398.5229129 1064.15055972 397.47137833 1065.06785583 C390.35515152 1071.25417818 383.09039927 1077.17153243 375.55829239 1082.84666443 C373.37478477 1084.51052595 371.21616256 1086.20415783 369.05731583 1087.89988708 C286.63934629 1152.24099319 184.76515932 1192.47186287 56.62762833 1209.31785583 C332.83762833 1209.81285583 332.83762833 1209.81285583 614.62762833 1210.31785583 C614.62762833 1212.29785583 614.62762833 1214.27785583 614.62762833 1216.31785583 C212.02762833 1216.31785583 -190.57237167 1216.31785583 -605.37237167 1216.31785583 C-605.37237167 1214.33785583 -605.37237167 1212.35785583 -605.37237167 1210.31785583 C-422.55237167 1209.98785583 -239.73237167 1209.65785583 -51.37237167 1209.31785583 C-62.26237167 1207.99785583 -73.15237167 1206.67785583 -84.37237167 1205.31785583 C-137.40838847 1197.46066816 -189.20282472 1182.63901994 -238.37237167 1161.31785583 C-239.96679887 1160.64060156 -241.56177711 1159.96464173 -243.15752792 1159.29051208 C-252.42349443 1155.34981368 -261.44129077 1150.96089512 -270.37237167 1146.31785583 C-272.0026329 1145.47190857 -272.0026329 1145.47190857 -273.6658287 1144.60887146 C-289.97056149 1136.12653858 -305.96175245 1127.35992787 -321.37237167 1117.31785583 C-322.33336777 1116.69411072 -323.29436386 1116.0703656 -324.28448105 1115.42771912 C-343.15447036 1103.13556326 -361.28640192 1090.1200741 -378.63116074 1075.75486755 C-381.15394887 1073.67282451 -383.70328937 1071.62378789 -386.24737167 1069.56785583 C-390.58455567 1066.01512515 -394.77695677 1062.32979081 -398.91924667 1058.55223083 C-400.52258174 1057.09186832 -402.13680908 1055.64335224 -403.76299667 1054.20848083 C-410.42336938 1048.32157076 -416.69253795 1042.09002835 -422.9368248 1035.76976013 C-426.45214253 1032.21438691 -430.00167392 1028.69359863 -433.55205917 1025.17332458 C-435.11722482 1023.61739685 -436.68232737 1022.06140563 -438.24737167 1020.50535583 C-439.02467636 1019.73643005 -439.80198105 1018.96750427 -440.60284042 1018.17527771 C-445.40828553 1013.39002355 -449.97822789 1008.48231237 -454.37237167 1003.31785583 C-454.83305038 1002.78410339 -455.2937291 1002.25035095 -455.76836777 1001.70042419 C-462.33096708 994.09227068 -468.64769465 986.31508207 -474.78692245 978.36277771 C-476.52164343 976.12532423 -478.27360283 973.90187478 -480.02471542 971.67723083 C-490.64636551 958.07627281 -500.15891286 943.89590228 -509.37237167 929.31785583 C-510.19076523 928.02307312 -510.19076523 928.02307312 -511.02569199 926.70213318 C-517.87885297 915.79776617 -524.26692815 904.65621291 -530.37237167 893.31785583 C-530.83224472 892.46659119 -531.29211777 891.61532654 -531.76592636 890.73826599 C-575.13926359 810.08500214 -599.71612081 720.02055577 -602.37237167 571.31785583 C-602.31178574 570.17735779 -602.2511998 569.03685974 -602.18877792 567.86180115 C-596.80464732 472.78794385 -567.86477516 378.69238723 -467.80938339 224.05906677 C-465.72734035 221.53627864 -463.67830373 218.98693814 -461.62237167 216.44285583 C-458.10342624 212.14691698 -454.45835021 207.98966717 -450.71099472 203.89183044 C-449.32172981 202.36275435 -447.9415622 200.82520009 -446.58160019 199.27000427 C-439.46674325 191.1686297 -431.81048284 183.60499452 -424.17925644 175.99436951 C-421.80822604 173.62871394 -419.44260746 171.2577407 -417.0774498 168.88621521 C-415.54977563 167.35920167 -414.02179139 165.83249826 -412.49346542 164.30613708 C-411.79740692 163.60805435 -411.10134842 162.90997162 -410.38419724 162.19073486 C-405.87338787 157.70111365 -401.20318702 153.45968093 -396.37237167 149.31785583 C-395.24271047 148.33304408 -394.11367962 147.34750812 -392.98565292 146.36082458 C-385.88729884 140.2032546 -378.64810949 134.32225704 -371.14434433 128.66453552 C-369.2333028 127.21216502 -367.33916457 125.73951415 -365.44659042 124.26316833 C-355.04253597 116.17248743 -344.34309988 108.61924938 -333.37237167 101.31785583 C-332.3134874 100.61064392 -332.3134874 100.61064392 -331.23321152 99.8891449 C-301.92525922 80.38741891 -270.71479825 63.23528795 -238.37237167 49.31785583 C-237.36061874 48.87812439 -236.34886581 48.43839294 -235.3064537 47.9853363 C-161.40476659 16.09381898 -80.38792691 -0.21719353 0 0 Z " fill="#8449D5" transform="translate(605.372371673584,8.682144165039063)"/>
<path d="M0 0 C5.70340063 3.29548077 10.4897277 7.51265305 15.4375 11.81640625 C24.99835903 20.10073939 34.86760744 25.01656145 47.0625 28.26879883 C61.21238416 32.08109943 61.21238416 32.08109943 65.5625 38.5 C66.3125 41.75 66.3125 41.75 65.5625 44.5 C56.29094286 52.58838259 42.68706368 51.01524807 31.1875 51.125 C27.57541867 51.17370798 23.96348214 51.22961105 20.3515625 51.2890625 C19.48944656 51.3031163 18.62733063 51.3171701 17.73908997 51.33164978 C1.28105939 51.12558864 1.28105939 51.12558864 -13.1328125 57.9921875 C-17.66286777 63.19527955 -17.79817803 67.96011182 -17.703125 74.57421875 C-17.33173842 78.66493265 -16.17201539 80.43200712 -13.4375 83.5 C-12.76976562 84.26957031 -12.10203125 85.03914063 -11.4140625 85.83203125 C-9.13106707 88.4305943 -6.79913726 90.97284628 -4.4375 93.5 C-3.85871094 94.12132812 -3.27992188 94.74265625 -2.68359375 95.3828125 C2.86788128 101.13494326 9.17820159 105.99926899 15.41357422 110.97802734 C35.9114889 127.36511054 55.14497662 143.34944564 62.5625 169.5 C63.09795987 171.02302972 63.63923882 172.54403153 64.1875 174.0625 C67.20450756 183.26069378 67.92398502 192.43118069 67.875 202.0625 C67.87081055 203.1963916 67.86662109 204.3302832 67.86230469 205.49853516 C67.44275246 237.04082871 54.36762646 267.89907121 33.5625 291.5 C32.85480469 292.31726563 32.14710938 293.13453125 31.41796875 293.9765625 C21.88469851 304.79811251 11.90769247 314.49667524 0.37451172 323.14111328 C-1.43498997 324.49811764 -3.23117095 325.87151652 -5.02734375 327.24609375 C-12.44241928 332.85760975 -20.08288214 337.90087893 -28.09667969 342.62109375 C-39.90004519 349.31377601 -39.90004519 349.31377601 -47.02197266 360.36669922 C-47.4919452 362.77951948 -47.59881392 365.0498521 -47.6484375 367.5078125 C-48.22126672 388.9588524 -49.99582203 413.21520715 -60.4375 432.5 C-61.23220703 434.07587891 -61.23220703 434.07587891 -62.04296875 435.68359375 C-72.41322445 455.56728765 -87.09402541 465.48812475 -107.97387695 472.6394043 C-110.58629624 473.55197768 -113.17151187 474.52631334 -115.76171875 475.5 C-121.66841406 477.65205577 -127.65930461 479.27094345 -133.75 480.8125 C-134.90064941 481.10737305 -136.05129883 481.40224609 -137.23681641 481.70605469 C-149.78472813 484.89234424 -162.39162426 487.82479759 -175.01098633 490.71289062 C-177.34017766 491.24793251 -179.66810494 491.78850089 -181.99487305 492.33398438 C-183.132229 492.60017578 -184.26958496 492.86636719 -185.44140625 493.140625 C-186.45017822 493.37813477 -187.4589502 493.61564453 -188.49829102 493.86035156 C-191.48824137 494.51104264 -194.47732328 495.02660312 -197.5 495.5 C-223.77501895 499.75800702 -240.55840824 513.94110591 -256.4375 534.5 C-257.01516113 535.24427246 -257.59282227 535.98854492 -258.18798828 536.75537109 C-278.5102278 561.98905275 -278.5102278 561.98905275 -295.4375 589.5 C-290.96000245 588.87586398 -286.94925012 587.74634782 -282.6875 586.25 C-276.98738017 584.28700693 -271.25728855 582.57136781 -265.4375 581 C-259.87061498 579.49333353 -254.39512511 577.86585474 -248.9375 576 C-243.5410798 574.15521738 -238.13046677 572.54765169 -232.625 571.0625 C-226.4863978 569.40455274 -220.45375758 567.55781421 -214.4375 565.5 C-207.67587127 563.18723738 -200.87679947 561.18683035 -193.97875977 559.32421875 C-189.21816939 558.02715145 -184.54787236 556.58561525 -179.875 555 C-178.66328125 554.59394531 -177.4515625 554.18789063 -176.203125 553.76953125 C-174.27515109 553.11954005 -172.34746199 552.46839045 -170.42773438 551.79443359 C-157.0385983 547.13225802 -142.28123764 544.26577375 -128.7578125 550.1796875 C-117.19283486 556.76043235 -110.27679921 569.01021544 -103.25 579.875 C-102.50459139 581.02185649 -101.75898346 582.16858345 -101.01318359 583.31518555 C-95.10834397 592.40720935 -89.24385909 601.52848638 -83.53417969 610.74462891 C-82.59676385 612.24507856 -81.62587416 613.72452719 -80.6484375 615.19921875 C-78.54360755 619.19839565 -78.69660173 623.1121559 -79.4375 627.5 C-81.375 630.625 -81.375 630.625 -84.4375 632.5 C-91.05105952 633.91993251 -96.75018695 631.80751539 -102.4375 628.5 C-104.56185656 627.02349686 -106.60241463 625.49442967 -108.61328125 623.8671875 C-112.99879922 620.58039673 -116.60999021 620.2502902 -122 620.125 C-130.5160356 619.73236879 -138.85983839 618.78398638 -144.9375 612.1875 C-147.41147858 608.86286976 -148.98138509 605.38297311 -150.4375 601.5 C-151.97521142 596.71621056 -151.97521142 596.71621056 -155.4375 593.5 C-162.16179507 592.50905125 -167.8217922 594.03968439 -174.13354492 596.29931641 C-179.67321541 598.28182026 -185.2700393 599.92262211 -190.9375 601.5 C-198.24711866 603.55266985 -205.44987137 605.76815286 -212.63671875 608.21875 C-219.42754376 610.52867719 -226.286718 612.63310796 -233.13134766 614.77685547 C-235.29030357 615.45384334 -237.44806387 616.13449467 -239.60546875 616.81640625 C-246.46533993 618.97910359 -253.34081409 621.06267367 -260.25 623.0625 C-265.85570742 624.68821807 -271.34071426 626.4757779 -276.796875 628.55859375 C-279.64608747 629.57436328 -282.51769677 630.33635968 -285.4375 631.125 C-292.29327232 633.16697046 -298.33342769 636.40851951 -304.55078125 639.88330078 C-314.21726353 645.229716 -324.46734465 649.0606009 -335.61328125 645.87890625 C-342.30763452 642.53915129 -346.60067842 635.14391837 -349.4375 628.5 C-350.73241712 616.99890817 -349.40828044 605.10582192 -343.75390625 594.94921875 C-342.46404451 592.54938697 -341.42189655 590.09979888 -340.36450195 587.59155273 C-328.93045475 561.79342727 -313.04960186 537.91815279 -297.4375 514.5 C-307.80058438 518.76393675 -318.13696575 523.08700626 -328.4375 527.5 C-329.3445166 527.88784668 -330.2515332 528.27569336 -331.18603516 528.67529297 C-342.09722239 533.43511108 -350.94806655 540.1531186 -360.14648438 547.64892578 C-363.16067837 550.08430716 -366.22580731 552.44996803 -369.29516602 554.81518555 C-377.22891716 560.92930818 -385.05414379 567.16765954 -392.7890625 573.53125 C-395.08302192 575.41458466 -397.40129893 577.24751577 -399.7734375 579.03125 C-406.36294993 584.02474546 -406.36294993 584.02474546 -409.7890625 591.26953125 C-412.54827881 600.76057049 -417.75161803 609.74903747 -426.50976562 614.66259766 C-429.79944835 616.38742507 -433.11643662 618.05561306 -436.43408203 619.72583008 C-442.98781562 623.09245648 -447.81107032 626.69845718 -452.4375 632.5 C-453.20578125 633.44230469 -453.9740625 634.38460937 -454.765625 635.35546875 C-460.03018065 641.95210859 -464.85926842 648.86953744 -469.69677734 655.78149414 C-473.51273138 661.22500031 -477.41993024 666.59436074 -481.375 671.9375 C-485.95139968 678.12126345 -490.50068896 684.322376 -495 690.5625 C-495.79736572 691.66815308 -495.79736572 691.66815308 -496.61083984 692.79614258 C-498.76733293 695.78857961 -500.92187867 698.78240647 -503.07421875 701.77783203 C-509.25474168 710.3788151 -515.47769739 718.93932736 -521.85229492 727.39770508 C-525.70498436 732.51218962 -529.51715656 737.65533205 -533.3125 742.8125 C-533.89620361 743.6055957 -534.47990723 744.39869141 -535.08129883 745.21582031 C-536.86723018 747.64349029 -538.65249277 750.07165047 -540.4375 752.5 C-548.59637128 763.59944593 -556.76338388 774.69120862 -565.06884766 785.68164062 C-566.37101967 787.41167579 -567.66115168 789.15007655 -568.94921875 790.890625 C-573.30459613 796.72545081 -577.87376651 802.15240481 -582.875 807.4375 C-592.92292048 818.12627673 -600.89627277 828.2881225 -607.00268555 841.74853516 C-609.54531594 847.24772512 -611.85034074 850.70642037 -617.4375 853.5 C-620.8125 853.875 -620.8125 853.875 -624.4375 853.5 C-629.4100296 848.66186309 -630.70148778 844.19170458 -630.81860352 837.49584961 C-630.7828504 821.41123878 -627.37052389 809.12714761 -620.45776367 794.67993164 C-617.49597509 788.25781078 -616.04803499 782.60462298 -617.4375 775.5 C-617.7675 774.84 -618.0975 774.18 -618.4375 773.5 C-618.72596111 770.76399007 -618.95107584 768.05586368 -619.125 765.3125 C-619.18494141 764.56935547 -619.24488281 763.82621094 -619.30664062 763.06054688 C-619.66225061 757.50231414 -619.56945903 752.15945404 -615.921875 747.609375 C-615.06335938 746.93648437 -615.06335938 746.93648437 -614.1875 746.25 C-613.62546875 745.79109375 -613.0634375 745.3321875 -612.484375 744.859375 C-607.33169858 741.43736852 -602.86361625 740.06767854 -596.75 739.5625 C-584.71243049 738.25119088 -575.42967966 735.0952121 -567.4375 725.5 C-563.42499715 720.194255 -559.8010709 714.61971897 -556.14501953 709.06591797 C-553.37865287 704.90885282 -550.50139963 700.83134484 -547.625 696.75 C-546.4539904 695.0823378 -545.28342519 693.41436347 -544.11328125 691.74609375 C-543.51725098 690.89644043 -542.9212207 690.04678711 -542.30712891 689.17138672 C-538.9633118 684.39363186 -535.63927749 679.60212703 -532.3125 674.8125 C-527.19351114 667.44591221 -522.05139322 660.09681929 -516.87011719 652.77392578 C-512.49513173 646.58905929 -508.14206837 640.3889793 -503.81054688 634.17358398 C-500.7639935 629.80491753 -497.69378178 625.45643724 -494.578125 621.13671875 C-493.9476123 620.25540283 -493.31709961 619.37408691 -492.66748047 618.46606445 C-491.47173307 616.79582661 -490.26818957 615.13112925 -489.05517578 613.47338867 C-484.14045825 606.57641622 -480.9118439 599.40684441 -479.0625 591.125 C-475.67980145 578.43540595 -469.31106511 568.44492733 -458.06640625 561.3828125 C-455.6928582 560.02148878 -453.29012158 558.71837904 -450.8828125 557.41796875 C-441.98540328 552.46487586 -434.32433609 545.83462819 -426.6328125 539.2265625 C-423.73649014 536.74126364 -420.7836707 534.33305929 -417.8125 531.9375 C-413.04511997 528.05836545 -408.49547013 523.98053793 -403.97265625 519.8203125 C-401.90424242 517.92718797 -399.81344124 516.07748296 -397.6875 514.25 C-380.53644992 501.25643765 -380.53644992 501.25643765 -370.03125 484.41796875 C-370.15582436 481.51156768 -370.15582436 481.51156768 -371.87109375 479.92578125 C-378.63087084 476.17034953 -385.31406332 473.99422639 -392.8125 472.1875 C-399.06890706 470.6712789 -405.16017669 468.73821332 -411.28417969 466.7668457 C-416.18644547 465.19348997 -421.09675869 463.73466726 -426.0625 462.375 C-430.63117893 461.09154453 -434.84523473 459.58839008 -439.125 457.55078125 C-441.87007384 456.30344195 -444.66897633 455.28734813 -447.5 454.25 C-459.42866895 449.68985616 -470.39814711 443.87877065 -480.86328125 436.578125 C-489.98071011 430.9158062 -498.75242082 429.9066741 -509.3125 430.125 C-510.48941406 430.12628906 -511.66632813 430.12757813 -512.87890625 430.12890625 C-524.14530067 430.24045471 -535.04034292 431.44171865 -545.625 435.4375 C-546.42107666 435.73325928 -547.21715332 436.02901855 -548.03735352 436.33374023 C-555.67984238 439.32794556 -562.43102998 443.48602741 -569.31640625 447.90625 C-574.485504 451.21753502 -579.88446222 453.88734124 -585.4375 456.5 C-586.41009766 457.04914063 -586.41009766 457.04914063 -587.40234375 457.609375 C-592.66398796 459.91197554 -599.01982725 459.72819932 -604.38183594 457.80126953 C-609.62710944 455.44695961 -614.51620333 452.45644681 -619.4375 449.5 C-621.15135476 448.50220558 -622.86622826 447.50615927 -624.58203125 446.51171875 C-663.00893321 424.0515545 -663.00893321 424.0515545 -668.4375 406.5 C-671.01884954 384.46500177 -662.99560096 363.45595632 -649.625 346.08984375 C-642.50059085 337.65505221 -635.09042702 330.88966974 -625.4375 325.5 C-624.71949219 325.07460938 -624.00148438 324.64921875 -623.26171875 324.2109375 C-617.49667634 321.03658022 -611.34018992 318.97497917 -605.125 316.875 C-604.27180176 316.58560547 -603.41860352 316.29621094 -602.53955078 315.99804688 C-591.4094957 312.34747273 -580.09254919 310.08211997 -568.5 308.5 C-567.27128174 308.33193848 -566.04256348 308.16387695 -564.77661133 307.99072266 C-543.80290038 305.25417379 -522.65712459 303.95664545 -501.54931641 302.7355957 C-469.26761285 300.86476053 -438.19246408 296.47746362 -408.99609375 281.83984375 C-408.30070999 281.49169617 -407.60532623 281.14354858 -406.88887024 280.78485107 C-400.87248937 277.75400019 -394.94452608 274.57238644 -389.0234375 271.3605957 C-368.50352922 260.23383664 -347.54085503 250.12792321 -325.4375 242.5 C-324.77943359 242.27135254 -324.12136719 242.04270508 -323.44335938 241.80712891 C-305.43533202 235.65992425 -286.67139616 230.23155018 -267.72631836 228.14526367 C-264.80374782 227.82264462 -262.23909837 227.43386612 -259.4375 226.5 C-254.97125956 225.99927088 -250.48368666 225.73767595 -246 225.4375 C-245.33799591 225.39297699 -244.67599182 225.34845398 -243.993927 225.30258179 C-234.11949508 224.65223224 -224.273854 224.31317509 -214.375 224.3125 C-213.26648682 224.3117749 -212.15797363 224.3110498 -211.01586914 224.31030273 C-198.78533943 224.39236207 -187.39461446 225.36340146 -175.5625 228.5625 C-174.39702637 228.87123047 -173.23155273 229.17996094 -172.03076172 229.49804688 C-161.56575887 232.33649581 -151.39007002 235.82582856 -141.20166016 239.51806641 C-136.57936386 241.16007981 -131.91277887 242.66522389 -127.25 244.1875 C-121.95257924 245.92917728 -116.7387219 247.70117847 -111.625 249.9375 C-102.7616715 253.7905682 -93.47500067 256.58650531 -84.29150391 259.56738281 C-81.80654986 260.37940372 -79.32995827 261.2114786 -76.85546875 262.0546875 C-56.25083003 268.97802382 -26.07261929 272.26161727 -5.4375 263.5 C-0.90592467 261.09865239 3.34150263 258.409568 7.5625 255.5 C8.39136719 254.93796875 9.22023438 254.3759375 10.07421875 253.796875 C23.28999933 243.55637486 28.40349024 224.80358767 31.171875 209.02734375 C32.87405794 193.65663179 31.90800099 180.32378562 22.5625 167.5 C19.06665574 163.32680004 15.35820747 159.39971583 11.5625 155.5 C11.03672363 154.95375977 10.51094727 154.40751953 9.96923828 153.84472656 C3.68681957 147.33340913 -2.71498471 141.24980865 -9.8125 135.6171875 C-13.37122175 132.74690895 -16.7362559 129.68561275 -20.11328125 126.60546875 C-22.15023925 124.76022445 -24.22020847 122.9691833 -26.3125 121.1875 C-27.69462248 119.96634761 -29.06883342 118.73621498 -30.4375 117.5 C-31.79488281 116.27796875 -31.79488281 116.27796875 -33.1796875 115.03125 C-51.39504072 98.06085258 -63.39701813 75.14038306 -64.75 50.08203125 C-64.95353061 42.71559132 -64.44466646 35.59963452 -62.4375 28.5 C-62.18097656 27.54738281 -61.92445313 26.59476563 -61.66015625 25.61328125 C-58.30818796 14.37771373 -52.7190664 4.2454447 -42.32421875 -1.7109375 C-29.11555072 -8.52052504 -13.0461654 -6.50428419 0 0 Z " fill="#FEFEFE" transform="translate(908.4375,202.5)"/>
<path d="M0 0 C2.37533826 -0.05552739 4.74930073 -0.09437404 7.125 -0.125 C7.77082031 -0.14175781 8.41664063 -0.15851563 9.08203125 -0.17578125 C13.61735681 -0.21897483 17.89266141 0.26439878 22.36962891 0.99560547 C29.92991894 2.09830505 37.32296143 2.2895142 44.953125 2.265625 C46.34731107 2.26697899 47.74149667 2.26892555 49.13568115 2.27142334 C52.0366268 2.27434411 54.93744794 2.27017933 57.83837891 2.26074219 C61.50034561 2.24939071 65.16202006 2.25607015 68.82397652 2.26764488 C89.19840237 2.32766835 89.19840237 2.32766835 109.46923828 0.44091797 C114.98347505 -0.24769437 120.44814598 -0.17656073 126 0 C126 0.33 126 0.66 126 1 C121.545 1.495 121.545 1.495 117 2 C393.21 2.495 393.21 2.495 675 3 C675 4.98 675 6.96 675 9 C272.4 9 -130.2 9 -545 9 C-545 7.02 -545 5.04 -545 3 C-362.18 2.67 -179.36 2.34 9 2 C6.03 1.67 3.06 1.34 0 1 C0 0.67 0 0.34 0 0 Z " fill="#E8E7E8" transform="translate(545,1216)"/>
<path d="M0 0 C0.66 0.33 1.32 0.66 2 1 C-1.63 4.63 -5.26 8.26 -9 12 C-9 8.47601214 -8.44884893 7.98495633 -6.1875 5.4375 C-5.40439453 4.53837891 -5.40439453 4.53837891 -4.60546875 3.62109375 C-3 2 -3 2 0 0 Z " fill="#E7DCF6" transform="translate(864,202)"/>
</svg>
