<?xml version="1.0" encoding="UTF-8"?>
<svg version="1.1" xmlns="http://www.w3.org/2000/svg" width="256" height="256">
<path d="M0 0 C2.52096309 2.2275585 4.98034211 4.50638231 7.42578125 6.81640625 C8.17601562 7.5021875 8.92625 8.18796875 9.69921875 8.89453125 C25.98970564 24.32762409 36.54719771 45.38249626 42.42578125 66.81640625 C42.93431641 68.57791016 42.93431641 68.57791016 43.453125 70.375 C51.37949267 103.7241875 43.69917207 138.85763396 26.42578125 167.81640625 C21.49702501 175.46447627 15.66316104 182.21338695 9.42578125 188.81640625 C8.74 189.56664062 8.05421875 190.316875 7.34765625 191.08984375 C-3.94499665 203.00986625 -17.94695542 210.70741616 -32.57421875 217.81640625 C-33.41855469 218.23921875 -34.26289063 218.66203125 -35.1328125 219.09765625 C-52.88508578 224.3239255 -79.46641451 213.25814044 -95.20385742 205.03295898 C-115.76300548 193.64763696 -130.06077531 175.40610147 -136.57421875 152.81640625 C-138.76296288 144.59146479 -138.90799428 136.54257728 -138.88671875 128.06640625 C-138.91088867 126.16375 -138.91088867 126.16375 -138.93554688 124.22265625 C-138.94456608 106.54502366 -134.69479577 89.78780915 -123.57421875 75.81640625 C-122.79949219 74.82640625 -122.02476563 73.83640625 -121.2265625 72.81640625 C-111.39817811 61.14126361 -95.93320297 55.7497314 -81.2109375 54.03515625 C-69.07066801 53.30491448 -54.32612923 53.68981418 -44.57421875 61.81640625 C-45.43402344 61.78160156 -46.29382813 61.74679688 -47.1796875 61.7109375 C-62.85214649 61.35202623 -75.95322722 64.48096043 -87.76171875 75.19140625 C-98.42737443 86.43542285 -102.97029742 100.51617272 -102.87329102 115.7355957 C-102.42488245 132.19969549 -95.15132828 145.38531431 -83.57421875 156.81640625 C-83.03410156 157.3784375 -82.49398437 157.94046875 -81.9375 158.51953125 C-73.58123916 166.51796731 -61.70961542 170.71697249 -50.57421875 172.81640625 C-48.90359375 173.15671875 -48.90359375 173.15671875 -47.19921875 173.50390625 C-25.42716643 175.38080731 -6.18926876 170.28259705 11.0546875 156.75390625 C23.12063479 146.43798185 33.94441902 131.02674156 35.42578125 114.81640625 C35.48991211 114.12836914 35.55404297 113.44033203 35.62011719 112.73144531 C38.37375923 81.09750011 30.65574349 48.9870468 10.25 24.078125 C-10.69280994 -0.51863247 -38.81939256 -16.69641595 -71.33203125 -19.65625 C-102.70152447 -22.00789167 -134.72026984 -13.24387574 -158.91650391 7.35791016 C-172.92562446 19.68346041 -182.3614712 33.25370819 -191.11572266 49.63916016 C-194.68839598 56.30394496 -198.55373785 62.64051676 -202.7265625 68.94140625 C-204.98671036 72.45825366 -206.82888439 76.02220111 -208.57421875 79.81640625 C-209.88201163 75.8930276 -208.95574876 72.96247162 -208.01171875 69.06640625 C-207.82899414 68.30924316 -207.64626953 67.55208008 -207.45800781 66.77197266 C-201.84001833 44.53680604 -190.23346767 25.39361114 -174.57421875 8.81640625 C-173.8884375 8.06617188 -173.20265625 7.3159375 -172.49609375 6.54296875 C-157.06300091 -9.74751814 -136.00812874 -20.30501021 -114.57421875 -26.18359375 C-113.39988281 -26.52261719 -112.22554688 -26.86164062 -111.015625 -27.2109375 C-72.53579317 -36.35674638 -29.92130312 -25.38089294 0 0 Z " fill="#981286" transform="translate(210.57421875,29.18359375)"/>
<path d="M0 0 C1.09441406 0.00161133 2.18882813 0.00322266 3.31640625 0.00488281 C15.7678032 0.19187376 26.68247378 2.77873689 37.875 8.375 C34.25017107 9.62974847 31.60344876 9.03903179 27.875 8.375 C6.60147166 7.23102536 -13.02144973 11.68141746 -29.75390625 25.5546875 C-43.51035672 38.36603832 -51.17429871 57.27395994 -52.34619141 75.88842773 C-53.22671715 104.62166876 -49.40590843 127.74436392 -29.85546875 149.953125 C-23.66685747 156.47166224 -16.74493327 161.66863378 -9.125 166.375 C-8.56216309 166.72304687 -7.99932617 167.07109375 -7.41943359 167.4296875 C5.48395929 175.22373236 20.0796827 180.43186384 34.94799805 182.85205078 C35.58390869 183.02462402 36.21981934 183.19719727 36.875 183.375 C37.205 184.035 37.535 184.695 37.875 185.375 C28.69104406 187.24844078 19.73250029 187.77743404 10.375 187.75 C9.6742334 187.74945618 8.9734668 187.74891235 8.25146484 187.74835205 C-13.36858505 187.67148896 -32.04813 182.69943737 -51.25 172.9375 C-51.94891357 172.59050049 -52.64782715 172.24350098 -53.36791992 171.88598633 C-67.03745554 164.62968734 -75.87059847 146.06282112 -80.25 131.8125 C-80.96769567 129.31725574 -81.5933957 126.90736419 -82.125 124.375 C-82.30466309 123.52188232 -82.48432617 122.66876465 -82.66943359 121.78979492 C-84.24129099 113.47152558 -84.52582403 105.26095073 -84.5 96.8125 C-84.49868576 95.7584346 -84.49868576 95.7584346 -84.49734497 94.68307495 C-84.38241804 66.66516272 -76.10070758 42.61660719 -56.125 22.375 C-40.47666323 6.92696194 -21.88457079 -0.03373084 0 0 Z " fill="#D82858" transform="translate(118.125,68.625)"/>
<path d="M0 0 C12.782799 10.9610772 23.73012326 23.874544 30.62402344 39.39257812 C30.62402344 40.38257813 30.62402344 41.37257812 30.62402344 42.39257812 C29.96402344 42.39257812 29.30402344 42.39257812 28.62402344 42.39257812 C28.37910156 41.82152344 28.13417969 41.25046875 27.88183594 40.66210938 C18.86032249 21.0947578 3.01224946 7.66472186 -16.81738281 -0.31835938 C-38.61509274 -8.21434651 -64.6780388 -6.94022204 -85.73632812 2.56713867 C-109.0540927 13.67097303 -124.71878714 34.54382365 -133.37597656 58.39257812 C-143.7771401 89.51100345 -139.77490247 121.34270314 -126.03100586 150.64111328 C-125.37597656 152.39257812 -125.37597656 152.39257812 -125.37597656 155.39257812 C-149.37866209 132.87459479 -165.26747437 102.51060519 -166.88037109 69.2722168 C-167.12360308 59.04931954 -165.0031071 51.4837578 -160.37597656 42.39257812 C-160.07095215 41.76367676 -159.76592773 41.13477539 -159.45166016 40.48681641 C-146.36053713 13.52168988 -124.68100392 -7.45632788 -96.39257812 -17.65771484 C-63.3974973 -28.9114224 -26.95683133 -22.16789017 0 0 Z " fill="#FC7334" transform="translate(166.3759765625,67.607421875)"/>
</svg>
